<mxfile host="app.diagrams.net" modified="2024-03-04T13:00:59.552Z" agent="Mozilla/5.0 (Windows NT 10.0; Win64; x64) AppleWebKit/537.36 (KHTML, like Gecko) Chrome/121.0.0.0 Safari/537.36 Edg/121.0.0.0" etag="4NfjhpgBdeQdkQ84tAbS" version="24.0.1" type="github">
  <diagram name="第 1 页" id="RE03Xr0t4gk7IBxT2PEH">
    <mxGraphModel dx="1522" dy="1008" grid="1" gridSize="10" guides="1" tooltips="1" connect="1" arrows="1" fold="1" page="1" pageScale="1" pageWidth="827" pageHeight="1169" math="0" shadow="0">
      <root>
        <mxCell id="0" />
        <mxCell id="1" parent="0" />
        <mxCell id="IWPuII6I3i_GxwSIYact-1" value="&lt;span style=&quot;color: rgba(0, 0, 0, 0.87); font-family: Roboto, Helvetica, Arial, sans-serif; font-size: 13.7143px; letter-spacing: 0.12864px; text-align: start; background-color: rgb(250, 250, 250);&quot;&gt;基于超复分析的海岸线高维提取方法&lt;/span&gt;" style="rounded=0;whiteSpace=wrap;html=1;" vertex="1" parent="1">
          <mxGeometry x="310" y="190" width="120" height="60" as="geometry" />
        </mxCell>
        <mxCell id="IWPuII6I3i_GxwSIYact-2" value="&lt;span style=&quot;color: rgba(0, 0, 0, 0.87); font-family: Roboto, Helvetica, Arial, sans-serif; font-size: 13.7143px; letter-spacing: 0.12864px; text-align: start; background-color: rgb(250, 250, 250);&quot;&gt;构建江苏岸线智能分析方法&lt;/span&gt;" style="rounded=0;whiteSpace=wrap;html=1;" vertex="1" parent="1">
          <mxGeometry x="110" y="280" width="120" height="60" as="geometry" />
        </mxCell>
        <mxCell id="IWPuII6I3i_GxwSIYact-3" value="&lt;span style=&quot;color: rgba(0, 0, 0, 0.87); font-family: Roboto, Helvetica, Arial, sans-serif; font-size: 13.7143px; letter-spacing: 0.12864px; text-align: start; background-color: rgb(250, 250, 250);&quot;&gt;多源信息耦合的典型用海地物边缘解析与集成分割&lt;/span&gt;" style="rounded=0;whiteSpace=wrap;html=1;" vertex="1" parent="1">
          <mxGeometry x="310" y="270" width="120" height="60" as="geometry" />
        </mxCell>
        <mxCell id="IWPuII6I3i_GxwSIYact-4" value="&lt;span style=&quot;color: rgba(0, 0, 0, 0.87); font-family: Roboto, Helvetica, Arial, sans-serif; font-size: 13.7143px; letter-spacing: 0.12864px; text-align: start; background-color: rgb(250, 250, 250);&quot;&gt;典型用海地物精细粒度提取与变化分析&lt;/span&gt;" style="rounded=0;whiteSpace=wrap;html=1;" vertex="1" parent="1">
          <mxGeometry x="310" y="350" width="120" height="60" as="geometry" />
        </mxCell>
        <mxCell id="IWPuII6I3i_GxwSIYact-5" value="&lt;span style=&quot;color: rgba(0, 0, 0, 0.87); font-family: Roboto, Helvetica, Arial, sans-serif; font-size: 13.7143px; letter-spacing: 0.12864px; text-align: start; background-color: rgb(250, 250, 250);&quot;&gt;海岸线变化的关键影响因子&lt;/span&gt;" style="rounded=0;whiteSpace=wrap;html=1;verticalAlign=top;" vertex="1" parent="1">
          <mxGeometry x="520" y="190" width="120" height="220" as="geometry" />
        </mxCell>
        <mxCell id="IWPuII6I3i_GxwSIYact-6" value="&lt;span style=&quot;color: rgba(0, 0, 0, 0.87); font-family: Roboto, Helvetica, Arial, sans-serif; font-size: 13.7143px; letter-spacing: 0.12864px; text-align: start; background-color: rgb(250, 250, 250);&quot;&gt;自然环境因素&lt;/span&gt;" style="rounded=0;whiteSpace=wrap;html=1;" vertex="1" parent="1">
          <mxGeometry x="530" y="250" width="100" height="50" as="geometry" />
        </mxCell>
        <mxCell id="IWPuII6I3i_GxwSIYact-7" value="&lt;span style=&quot;color: rgba(0, 0, 0, 0.87); font-family: Roboto, Helvetica, Arial, sans-serif; font-size: 13.7143px; letter-spacing: 0.12864px; text-align: start; background-color: rgb(250, 250, 250);&quot;&gt;人类活动因素&lt;/span&gt;" style="rounded=0;whiteSpace=wrap;html=1;" vertex="1" parent="1">
          <mxGeometry x="530" y="330" width="100" height="50" as="geometry" />
        </mxCell>
        <mxCell id="IWPuII6I3i_GxwSIYact-13" value="" style="edgeStyle=orthogonalEdgeStyle;rounded=0;orthogonalLoop=1;jettySize=auto;html=1;entryX=0;entryY=0.5;entryDx=0;entryDy=0;" edge="1" parent="1" source="IWPuII6I3i_GxwSIYact-8" target="IWPuII6I3i_GxwSIYact-9">
          <mxGeometry relative="1" as="geometry" />
        </mxCell>
        <mxCell id="IWPuII6I3i_GxwSIYact-8" value="&lt;span style=&quot;color: rgba(0, 0, 0, 0.87); font-family: Roboto, Helvetica, Arial, sans-serif; font-size: 13.7143px; letter-spacing: 0.12864px; text-align: start; background-color: rgb(250, 250, 250);&quot;&gt;多基元关联形态分析方法&lt;/span&gt;" style="rounded=0;whiteSpace=wrap;html=1;" vertex="1" parent="1">
          <mxGeometry x="120" y="470" width="120" height="200" as="geometry" />
        </mxCell>
        <mxCell id="IWPuII6I3i_GxwSIYact-9" value="&lt;span style=&quot;color: rgba(0, 0, 0, 0.87); font-family: Roboto, Helvetica, Arial, sans-serif; font-size: 13.7143px; letter-spacing: 0.12864px; text-align: start; background-color: rgb(250, 250, 250);&quot;&gt;用海地物&lt;/span&gt;" style="rounded=0;whiteSpace=wrap;html=1;verticalAlign=top;" vertex="1" parent="1">
          <mxGeometry x="310" y="470" width="120" height="200" as="geometry" />
        </mxCell>
        <mxCell id="IWPuII6I3i_GxwSIYact-10" value="&lt;span style=&quot;color: rgba(0, 0, 0, 0.87); font-family: Roboto, Helvetica, Arial, sans-serif; font-size: 13.7143px; letter-spacing: 0.12864px; text-align: start; background-color: rgb(250, 250, 250);&quot;&gt;筏架&lt;/span&gt;" style="rounded=0;whiteSpace=wrap;html=1;flipV=1;" vertex="1" parent="1">
          <mxGeometry x="320" y="506" width="100" height="40" as="geometry" />
        </mxCell>
        <mxCell id="IWPuII6I3i_GxwSIYact-11" value="&lt;span style=&quot;color: rgba(0, 0, 0, 0.87); font-family: Roboto, Helvetica, Arial, sans-serif; font-size: 13.7143px; letter-spacing: 0.12864px; text-align: start; background-color: rgb(250, 250, 250);&quot;&gt;网箱&lt;/span&gt;" style="rounded=0;whiteSpace=wrap;html=1;flipV=1;" vertex="1" parent="1">
          <mxGeometry x="320" y="560" width="100" height="40" as="geometry" />
        </mxCell>
        <mxCell id="IWPuII6I3i_GxwSIYact-30" style="edgeStyle=orthogonalEdgeStyle;rounded=0;orthogonalLoop=1;jettySize=auto;html=1;entryX=0;entryY=0.5;entryDx=0;entryDy=0;" edge="1" parent="1" target="IWPuII6I3i_GxwSIYact-34">
          <mxGeometry relative="1" as="geometry">
            <mxPoint x="420" y="780" as="sourcePoint" />
            <mxPoint x="730" y="725" as="targetPoint" />
          </mxGeometry>
        </mxCell>
        <mxCell id="IWPuII6I3i_GxwSIYact-32" value="形态分析、时相光谱差异性分析" style="edgeLabel;align=center;verticalAlign=middle;resizable=0;points=[];" vertex="1" connectable="0" parent="IWPuII6I3i_GxwSIYact-30">
          <mxGeometry x="0.1745" relative="1" as="geometry">
            <mxPoint x="-20" as="offset" />
          </mxGeometry>
        </mxCell>
        <mxCell id="IWPuII6I3i_GxwSIYact-12" value="&lt;span style=&quot;color: rgba(0, 0, 0, 0.87); font-family: Roboto, Helvetica, Arial, sans-serif; font-size: 13.7143px; letter-spacing: 0.12864px; text-align: start; background-color: rgb(250, 250, 250);&quot;&gt;池塘&lt;/span&gt;" style="rounded=0;whiteSpace=wrap;html=1;flipV=1;" vertex="1" parent="1">
          <mxGeometry x="320" y="618" width="100" height="40" as="geometry" />
        </mxCell>
        <mxCell id="IWPuII6I3i_GxwSIYact-16" value="&lt;span style=&quot;color: rgba(0, 0, 0, 0.87); font-family: Roboto, Helvetica, Arial, sans-serif; font-size: 13.7143px; letter-spacing: 0.12864px; text-align: start; background-color: rgb(250, 250, 250);&quot;&gt;内部亚结构的精细提取&lt;/span&gt;" style="rounded=0;whiteSpace=wrap;html=1;" vertex="1" parent="1">
          <mxGeometry x="550" y="810" width="120" height="60" as="geometry" />
        </mxCell>
        <mxCell id="IWPuII6I3i_GxwSIYact-19" value="" style="edgeStyle=orthogonalEdgeStyle;rounded=0;orthogonalLoop=1;jettySize=auto;html=1;exitX=1;exitY=0.5;exitDx=0;exitDy=0;" edge="1" parent="1" source="IWPuII6I3i_GxwSIYact-10" target="IWPuII6I3i_GxwSIYact-18">
          <mxGeometry relative="1" as="geometry">
            <mxPoint x="570" y="525" as="sourcePoint" />
          </mxGeometry>
        </mxCell>
        <mxCell id="IWPuII6I3i_GxwSIYact-21" value="网络模型边缘输出" style="edgeLabel;html=1;align=center;verticalAlign=middle;resizable=0;points=[];" vertex="1" connectable="0" parent="IWPuII6I3i_GxwSIYact-19">
          <mxGeometry x="0.0042" y="-1" relative="1" as="geometry">
            <mxPoint as="offset" />
          </mxGeometry>
        </mxCell>
        <mxCell id="IWPuII6I3i_GxwSIYact-23" style="edgeStyle=orthogonalEdgeStyle;rounded=0;orthogonalLoop=1;jettySize=auto;html=1;exitX=1;exitY=0.5;exitDx=0;exitDy=0;entryX=0;entryY=0.5;entryDx=0;entryDy=0;" edge="1" parent="1" source="IWPuII6I3i_GxwSIYact-18" target="IWPuII6I3i_GxwSIYact-22">
          <mxGeometry relative="1" as="geometry" />
        </mxCell>
        <mxCell id="IWPuII6I3i_GxwSIYact-24" value="链码追踪、修剪和连接" style="edgeLabel;html=1;align=center;verticalAlign=middle;resizable=0;points=[];" vertex="1" connectable="0" parent="IWPuII6I3i_GxwSIYact-23">
          <mxGeometry x="-0.2306" y="-2" relative="1" as="geometry">
            <mxPoint x="12" y="-2" as="offset" />
          </mxGeometry>
        </mxCell>
        <mxCell id="IWPuII6I3i_GxwSIYact-18" value="&lt;span style=&quot;color: rgba(0, 0, 0, 0.87); font-family: Roboto, Helvetica, Arial, sans-serif; font-size: 13.7143px; letter-spacing: 0.12864px; text-align: start; background-color: rgb(250, 250, 250);&quot;&gt;内部条带定位&lt;/span&gt;" style="rounded=0;whiteSpace=wrap;html=1;" vertex="1" parent="1">
          <mxGeometry x="530" y="470" width="100" height="50" as="geometry" />
        </mxCell>
        <mxCell id="IWPuII6I3i_GxwSIYact-26" value="" style="edgeStyle=orthogonalEdgeStyle;rounded=0;orthogonalLoop=1;jettySize=auto;html=1;" edge="1" parent="1" source="IWPuII6I3i_GxwSIYact-22" target="IWPuII6I3i_GxwSIYact-25">
          <mxGeometry relative="1" as="geometry" />
        </mxCell>
        <mxCell id="IWPuII6I3i_GxwSIYact-27" value="直线拟合" style="edgeLabel;html=1;align=center;verticalAlign=middle;resizable=0;points=[];" vertex="1" connectable="0" parent="IWPuII6I3i_GxwSIYact-26">
          <mxGeometry x="-0.0171" y="3" relative="1" as="geometry">
            <mxPoint as="offset" />
          </mxGeometry>
        </mxCell>
        <mxCell id="IWPuII6I3i_GxwSIYact-22" value="&lt;span style=&quot;color: rgba(0, 0, 0, 0.87); font-family: Roboto, Helvetica, Arial, sans-serif; font-size: 13.7143px; letter-spacing: 0.12864px; text-align: start; background-color: rgb(250, 250, 250);&quot;&gt;筏带提取&lt;/span&gt;" style="rounded=0;whiteSpace=wrap;html=1;" vertex="1" parent="1">
          <mxGeometry x="780" y="470" width="100" height="50" as="geometry" />
        </mxCell>
        <mxCell id="IWPuII6I3i_GxwSIYact-29" value="" style="edgeStyle=orthogonalEdgeStyle;rounded=0;orthogonalLoop=1;jettySize=auto;html=1;" edge="1" parent="1" source="IWPuII6I3i_GxwSIYact-25" target="IWPuII6I3i_GxwSIYact-28">
          <mxGeometry relative="1" as="geometry" />
        </mxCell>
        <mxCell id="IWPuII6I3i_GxwSIYact-25" value="&lt;span style=&quot;color: rgba(0, 0, 0, 0.87); font-family: Roboto, Helvetica, Arial, sans-serif; font-size: 13.7143px; letter-spacing: 0.12864px; text-align: start; background-color: rgb(250, 250, 250);&quot;&gt;直线基元&lt;/span&gt;" style="whiteSpace=wrap;html=1;rounded=0;" vertex="1" parent="1">
          <mxGeometry x="960" y="470" width="120" height="60" as="geometry" />
        </mxCell>
        <mxCell id="IWPuII6I3i_GxwSIYact-28" value="&lt;span style=&quot;color: rgba(0, 0, 0, 0.87); font-family: Roboto, Helvetica, Arial, sans-serif; font-size: 13.7143px; letter-spacing: 0.12864px; text-align: start; background-color: rgb(250, 250, 250);&quot;&gt;形态变化分析&lt;/span&gt;" style="whiteSpace=wrap;html=1;rounded=0;" vertex="1" parent="1">
          <mxGeometry x="1400" y="495" width="120" height="60" as="geometry" />
        </mxCell>
        <mxCell id="IWPuII6I3i_GxwSIYact-33" value="&lt;span style=&quot;color: rgba(0, 0, 0, 0.87); font-family: Roboto, Helvetica, Arial, sans-serif; font-size: 13.7143px; letter-spacing: 0.12864px; text-align: start; background-color: rgb(250, 250, 250);&quot;&gt;用海地物类型的细分&lt;/span&gt;" style="rounded=0;whiteSpace=wrap;html=1;" vertex="1" parent="1">
          <mxGeometry x="960" y="750" width="120" height="60" as="geometry" />
        </mxCell>
        <mxCell id="IWPuII6I3i_GxwSIYact-35" style="edgeStyle=orthogonalEdgeStyle;rounded=0;orthogonalLoop=1;jettySize=auto;html=1;exitX=1;exitY=0.5;exitDx=0;exitDy=0;entryX=0;entryY=0.5;entryDx=0;entryDy=0;" edge="1" parent="1" source="IWPuII6I3i_GxwSIYact-34" target="IWPuII6I3i_GxwSIYact-33">
          <mxGeometry relative="1" as="geometry" />
        </mxCell>
        <mxCell id="IWPuII6I3i_GxwSIYact-34" value="&lt;span style=&quot;color: rgba(0, 0, 0, 0.87); font-family: Roboto, Helvetica, Arial, sans-serif; font-size: 13.7143px; letter-spacing: 0.12864px; text-align: start; background-color: rgb(250, 250, 250);&quot;&gt;内部光谱色调变化和差异&lt;/span&gt;" style="rounded=0;whiteSpace=wrap;html=1;" vertex="1" parent="1">
          <mxGeometry x="780" y="760" width="100" height="50" as="geometry" />
        </mxCell>
      </root>
    </mxGraphModel>
  </diagram>
</mxfile>
